<svg width="294" height="160" viewBox="0 0 294 160" fill="none" xmlns="http://www.w3.org/2000/svg">
<mask id="path-1-outside-1_89_81" maskUnits="userSpaceOnUse" x="0.429688" y="0.414062" width="294" height="160" fill="black">
<rect fill="white" x="0.429688" y="0.414062" width="294" height="160"/>
<path d="M53.3125 69.875C53.3125 70.625 53.1328 71.2344 52.7734 71.7031C52.4141 72.1562 51.9062 72.5234 51.25 72.8047C50.7031 73.0391 50.0156 73.2266 49.1875 73.3672C48.3594 73.4922 47.5 73.5859 46.6094 73.6484C45.7188 73.6953 44.8438 73.7266 43.9844 73.7422C43.125 73.7578 42.4062 73.7656 41.8281 73.7656C40.8438 73.7656 39.8672 73.75 38.8984 73.7188C37.9453 73.6875 36.9766 73.6406 35.9922 73.5781C36.0391 71.9844 35.9922 70.4062 35.8516 68.8438C37.0234 68.875 38.1875 68.9062 39.3438 68.9375C40.5156 68.9531 41.6875 68.9766 42.8594 69.0078C43.3125 69.0234 43.7656 69.0391 44.2188 69.0547C44.6875 69.0703 45.1562 69.0781 45.625 69.0781C45.7031 69.0781 45.8203 69.0781 45.9766 69.0781C46.1328 69.0781 46.2969 69.0703 46.4688 69.0547C46.6406 69.0391 46.7969 69.0156 46.9375 68.9844C47.0938 68.9531 47.2109 68.9062 47.2891 68.8438C47.3516 68.7812 47.3906 68.6953 47.4062 68.5859C47.4219 68.4609 47.4297 68.3516 47.4297 68.2578C47.4297 68.0859 47.4062 67.8828 47.3594 67.6484C47.3125 67.3984 47.2422 67.1953 47.1484 67.0391C47.1328 67.0234 47.0781 67.0078 46.9844 66.9922C46.9062 66.9766 46.8125 66.9688 46.7031 66.9688C46.5938 66.9531 46.4922 66.9453 46.3984 66.9453C46.3047 66.9297 46.25 66.9219 46.2344 66.9219C45.2344 66.8438 44.2344 66.7891 43.2344 66.7578C42.25 66.7266 41.2578 66.6719 40.2578 66.5938C39.8047 66.5469 39.3359 66.5 38.8516 66.4531C38.3828 66.4062 37.9453 66.3203 37.5391 66.1953C37.1484 66.0859 36.8125 65.8438 36.5312 65.4688C36.2656 65.0781 36.0469 64.6406 35.875 64.1562C35.7188 63.6562 35.6016 63.1562 35.5234 62.6562C35.4609 62.1562 35.4297 61.7344 35.4297 61.3906C35.4297 60.8281 35.4844 60.2969 35.5938 59.7969C35.7031 59.2812 35.875 58.8047 36.1094 58.3672C36.3594 57.9297 36.6719 57.5469 37.0469 57.2188C37.4219 56.875 37.8828 56.5938 38.4297 56.375C39.3672 56.0156 40.3672 55.7656 41.4297 55.625C42.5078 55.4844 43.5391 55.4141 44.5234 55.4141C45.6797 55.4141 46.8203 55.4844 47.9453 55.625C49.0703 55.7656 50.1953 55.9453 51.3203 56.1641C51.3047 56.6172 51.2891 57.0703 51.2734 57.5234C51.2734 57.9609 51.2734 58.4062 51.2734 58.8594C51.2734 59.3125 51.2969 59.7734 51.3438 60.2422C51.3906 60.6953 51.4375 61.1484 51.4844 61.6016C50 61.6328 48.5156 61.6641 47.0312 61.6953C45.5625 61.7109 44.0781 61.75 42.5781 61.8125C42.3906 61.8125 42.1328 61.8203 41.8047 61.8359C41.4922 61.8516 41.1875 61.875 40.8906 61.9062C40.5938 61.9219 40.3359 61.9375 40.1172 61.9531C39.8984 61.9688 39.7891 61.9766 39.7891 61.9766C39.7109 62.1484 39.6641 62.3281 39.6484 62.5156C39.6328 62.6875 39.625 62.8672 39.625 63.0547C39.625 63.1484 39.625 63.2656 39.625 63.4062C39.6406 63.5469 39.6797 63.6562 39.7422 63.7344C39.7578 63.75 39.8906 63.7734 40.1406 63.8047C40.3906 63.8359 40.6641 63.8672 40.9609 63.8984C41.2734 63.9297 41.5625 63.9609 41.8281 63.9922C42.1094 64.0234 42.2812 64.0391 42.3438 64.0391C42.8594 64.0859 43.4609 64.1406 44.1484 64.2031C44.8516 64.2656 45.5625 64.3359 46.2812 64.4141C47.0156 64.4922 47.7188 64.5938 48.3906 64.7188C49.0625 64.8281 49.6484 64.9609 50.1484 65.1172C50.6016 65.2734 51.0156 65.5234 51.3906 65.8672C51.7812 66.1953 52.1172 66.5859 52.3984 67.0391C52.6797 67.4766 52.8984 67.9453 53.0547 68.4453C53.2266 68.9297 53.3125 69.4062 53.3125 69.875ZM66.6484 69.8516L66.25 73.9766C65.75 74.0078 65.25 74.0312 64.75 74.0469C64.25 74.0781 63.75 74.0938 63.25 74.0938C62.9844 74.0938 62.6328 74.0859 62.1953 74.0703C61.7578 74.0547 61.3047 74.0312 60.8359 74C60.3672 73.9531 59.9219 73.8984 59.5 73.8359C59.0781 73.7578 58.7422 73.6641 58.4922 73.5547C58.1172 73.3828 57.8047 73.1562 57.5547 72.875C57.3203 72.5938 57.125 72.2891 56.9688 71.9609C56.8125 71.6172 56.6875 71.2578 56.5938 70.8828C56.5 70.4922 56.4297 70.1094 56.3828 69.7344C56.3359 69.375 56.2969 68.9922 56.2656 68.5859C56.25 68.1641 56.2344 67.7344 56.2188 67.2969C56.2188 66.8594 56.2188 66.4375 56.2188 66.0312C56.2188 65.6094 56.2188 65.2188 56.2188 64.8594V64.1562H54.7656C54.8281 63.4531 54.8594 62.7578 54.8594 62.0703C54.875 61.3828 54.9141 60.6875 54.9766 59.9844L56.3828 60.0312V56.5625C57.2734 56.7344 58.1562 56.8281 59.0312 56.8438C59.9219 56.8438 60.8125 56.875 61.7031 56.9375L61.6562 60.5234L63.625 60.6406C63.625 60.75 63.625 60.8516 63.625 60.9453C63.6406 61.0391 63.6484 61.1406 63.6484 61.25C63.6484 61.6875 63.6094 62.1172 63.5312 62.5391C63.4688 62.9453 63.3828 63.3594 63.2734 63.7812H61.5625C61.5312 64.5 61.5078 65.2188 61.4922 65.9375C61.4766 66.6562 61.4688 67.375 61.4688 68.0938C61.4688 68.4375 61.4766 68.75 61.4922 69.0312C61.5234 69.2969 61.5859 69.5234 61.6797 69.7109C61.7891 69.8984 61.9609 70.0391 62.1953 70.1328C62.4297 70.2266 62.7578 70.2734 63.1797 70.2734C63.7578 70.2734 64.3359 70.2344 64.9141 70.1562C65.4922 70.0781 66.0703 69.9766 66.6484 69.8516ZM83.9453 64.7188C83.9453 64.8438 83.9453 64.9688 83.9453 65.0938C83.9453 65.2031 83.9375 65.3203 83.9219 65.4453C83.9062 65.6641 83.8672 66.0234 83.8047 66.5234C83.7422 67.0234 83.6562 67.5469 83.5469 68.0938C83.4375 68.625 83.3047 69.1172 83.1484 69.5703C82.9922 70.0234 82.8203 70.3125 82.6328 70.4375C82.5391 70.5 82.2188 70.5547 81.6719 70.6016C81.1406 70.6484 80.4844 70.6953 79.7031 70.7422C78.9375 70.7891 78.1016 70.8281 77.1953 70.8594C76.2891 70.8906 75.4219 70.9219 74.5938 70.9531C73.7812 70.9688 73.0625 70.9844 72.4375 71C71.8281 71.0156 71.4219 71.0234 71.2188 71.0234C71.125 71.0234 70.9609 71.0234 70.7266 71.0234C70.5078 71.0234 70.2734 71.0234 70.0234 71.0234C69.7734 71.0078 69.5391 70.9922 69.3203 70.9766C69.1016 70.9609 68.9453 70.9375 68.8516 70.9062C68.6328 70.8281 68.4141 70.7031 68.1953 70.5312C67.9766 70.3438 67.7734 70.1406 67.5859 69.9219C67.3984 69.6875 67.2266 69.4531 67.0703 69.2188C66.9297 68.9688 66.8281 68.7344 66.7656 68.5156C66.7188 68.3438 66.6797 68.0859 66.6484 67.7422C66.6172 67.3828 66.5938 67.0156 66.5781 66.6406C66.5625 66.25 66.5469 65.875 66.5312 65.5156C66.5312 65.1562 66.5312 64.8828 66.5312 64.6953C66.5312 64.3984 66.5391 63.9922 66.5547 63.4766C66.5703 62.9453 66.6172 62.4062 66.6953 61.8594C66.7734 61.3125 66.8828 60.8047 67.0234 60.3359C67.1797 59.8516 67.3984 59.5156 67.6797 59.3281C67.8047 59.25 68.0391 59.1797 68.3828 59.1172C68.7266 59.0547 69.1328 59 69.6016 58.9531C70.0703 58.9062 70.5703 58.875 71.1016 58.8594C71.6328 58.8281 72.1484 58.8125 72.6484 58.8125C73.1641 58.7969 73.6406 58.7891 74.0781 58.7891C74.5156 58.7891 74.8672 58.7969 75.1328 58.8125C75.3672 58.8281 75.7031 58.8438 76.1406 58.8594C76.5781 58.8594 77.0625 58.8672 77.5938 58.8828C78.1406 58.8984 78.7031 58.9297 79.2812 58.9766C79.8594 59.0078 80.3984 59.0547 80.8984 59.1172C81.3984 59.1797 81.8359 59.2656 82.2109 59.375C82.6016 59.4688 82.8594 59.5859 82.9844 59.7266C83.1875 59.9453 83.3516 60.2734 83.4766 60.7109C83.6016 61.1484 83.6953 61.6172 83.7578 62.1172C83.8359 62.6016 83.8828 63.0859 83.8984 63.5703C83.9297 64.0391 83.9453 64.4219 83.9453 64.7188ZM78.9766 65.2109C78.9766 65.0234 78.9688 64.8047 78.9531 64.5547C78.9375 64.3047 78.9141 64.0547 78.8828 63.8047C78.8516 63.5391 78.8047 63.2891 78.7422 63.0547C78.6797 62.8047 78.6016 62.6016 78.5078 62.4453C78.3828 62.2422 78.1406 62.0859 77.7812 61.9766C77.4219 61.8672 77.0234 61.7891 76.5859 61.7422C76.1641 61.6797 75.7422 61.6406 75.3203 61.625C74.9141 61.6094 74.6094 61.6016 74.4062 61.6016C74.2969 61.6016 74.1016 61.6094 73.8203 61.625C73.5391 61.625 73.2422 61.6328 72.9297 61.6484C72.6328 61.6641 72.3516 61.6953 72.0859 61.7422C71.8203 61.7734 71.6484 61.8125 71.5703 61.8594C71.4297 61.9531 71.3203 62.1016 71.2422 62.3047C71.1641 62.4922 71.1016 62.7031 71.0547 62.9375C71.0234 63.1719 71 63.4062 70.9844 63.6406C70.9844 63.8594 70.9844 64.0391 70.9844 64.1797C70.9844 64.3203 70.9922 64.5781 71.0078 64.9531C71.0391 65.3125 71.0703 65.7031 71.1016 66.125C71.1484 66.5312 71.2031 66.9062 71.2656 67.25C71.3281 67.5938 71.4062 67.8125 71.5 67.9062C71.6094 68.0312 71.8125 68.1328 72.1094 68.2109C72.4219 68.2891 72.75 68.3594 73.0938 68.4219C73.4531 68.4688 73.7969 68.5078 74.125 68.5391C74.4531 68.5547 74.6875 68.5625 74.8281 68.5625C75.0781 68.5625 75.375 68.5547 75.7188 68.5391C76.0625 68.5234 76.4062 68.4844 76.75 68.4219C77.1094 68.3594 77.4453 68.2734 77.7578 68.1641C78.0703 68.0547 78.3203 67.9062 78.5078 67.7188C78.6172 67.6094 78.7031 67.4453 78.7656 67.2266C78.8281 67.0078 78.875 66.7734 78.9062 66.5234C78.9375 66.2734 78.9531 66.0312 78.9531 65.7969C78.9688 65.5469 78.9766 65.3516 78.9766 65.2109ZM102.953 66.0078C102.953 66.2266 102.945 66.4688 102.93 66.7344C102.93 66.9844 102.906 67.2422 102.859 67.5078C102.828 67.7734 102.773 68.0312 102.695 68.2812C102.633 68.5156 102.539 68.7266 102.414 68.9141C102.148 69.3047 101.898 69.6406 101.664 69.9219C101.43 70.1875 101.172 70.4141 100.891 70.6016C100.625 70.7734 100.32 70.9141 99.9766 71.0234C99.6328 71.1328 99.2266 71.2188 98.7578 71.2812C98.0547 71.3906 97.3594 71.4922 96.6719 71.5859C95.9844 71.6641 95.2891 71.7031 94.5859 71.7031C94.2734 71.7031 93.9531 71.6875 93.625 71.6562C93.2969 71.625 92.9922 71.5234 92.7109 71.3516C92.5547 71.2734 92.3828 71.1719 92.1953 71.0469C92.0234 70.9062 91.8516 70.7656 91.6797 70.625C91.5078 70.4688 91.3359 70.3203 91.1641 70.1797C91.0078 70.0234 90.8672 69.8906 90.7422 69.7812L90.6016 75.6641C90.1641 75.6953 89.7266 75.7031 89.2891 75.6875C88.8516 75.6875 88.4062 75.6875 87.9531 75.6875C87.6875 75.6875 87.4297 75.6875 87.1797 75.6875C86.9453 75.7031 86.6953 75.7188 86.4297 75.7344C86.4922 74.3906 86.5469 73.0547 86.5938 71.7266C86.6562 70.3828 86.6875 69.0469 86.6875 67.7188V67.4375C86.6875 65.9531 86.6484 64.4766 86.5703 63.0078C86.4922 61.5391 86.4219 60.0625 86.3594 58.5781C87.1406 58.5156 87.9141 58.4609 88.6797 58.4141C89.4453 58.3672 90.2188 58.3125 91 58.25L91.1641 59.4922C92.2422 59.3672 93.3203 59.2656 94.3984 59.1875C95.4922 59.0938 96.5859 59.0469 97.6797 59.0469C97.8203 59.0469 97.9688 59.0469 98.125 59.0469C98.2969 59.0312 98.4531 59.0391 98.5938 59.0703C98.9688 59.1484 99.3516 59.25 99.7422 59.375C100.133 59.4844 100.5 59.6328 100.844 59.8203C101.188 60.0078 101.492 60.25 101.758 60.5469C102.023 60.8281 102.227 61.1719 102.367 61.5781C102.461 61.8906 102.547 62.2344 102.625 62.6094C102.703 62.9844 102.766 63.375 102.812 63.7812C102.859 64.1719 102.891 64.5625 102.906 64.9531C102.938 65.3281 102.953 65.6797 102.953 66.0078ZM98.3359 65.5859C98.3359 65.3984 98.3203 65.1953 98.2891 64.9766C98.2578 64.7578 98.1797 64.5781 98.0547 64.4375C97.7422 64.0781 97.3516 63.8047 96.8828 63.6172C96.4141 63.4141 95.9531 63.3125 95.5 63.3125C95.125 63.3125 94.7188 63.3516 94.2812 63.4297C93.8438 63.4922 93.4062 63.5859 92.9688 63.7109C92.5312 63.8203 92.1016 63.9531 91.6797 64.1094C91.2578 64.25 90.875 64.3906 90.5312 64.5312L90.7422 67.6719C91.3203 67.8438 91.9375 68 92.5938 68.1406C93.2656 68.2812 93.8984 68.3516 94.4922 68.3516C94.6484 68.3516 94.8906 68.3594 95.2188 68.375C95.5469 68.375 95.8828 68.3672 96.2266 68.3516C96.5859 68.3203 96.9141 68.2812 97.2109 68.2344C97.5234 68.1875 97.7266 68.1016 97.8203 67.9766C97.8984 67.8828 97.9688 67.7344 98.0312 67.5312C98.0938 67.3125 98.1484 67.0859 98.1953 66.8516C98.2422 66.6016 98.2734 66.3672 98.2891 66.1484C98.3203 65.9141 98.3359 65.7266 98.3359 65.5859ZM132.273 62.2109C132.273 63.4922 131.883 64.5 131.102 65.2344C130.32 65.9688 129.289 66.3672 128.008 66.4297C129.555 69.0078 130.906 71.6484 132.062 74.3516L125.219 74.5156C125.094 73.25 124.906 72.0859 124.656 71.0234C124.406 69.9609 124.055 68.8438 123.602 67.6719C123.086 67.7031 122.57 67.7422 122.055 67.7891C121.555 67.8359 121.055 67.875 120.555 67.9062L120.672 73.2266C119.781 73.2734 118.891 73.2969 118 73.2969C117.547 73.2969 117.102 73.2891 116.664 73.2734C116.242 73.2578 115.812 73.2266 115.375 73.1797C115.484 71.7422 115.586 70.3125 115.68 68.8906C115.773 67.4531 115.828 66.0234 115.844 64.6016C115.891 62.0703 115.961 59.5391 116.055 57.0078C117.523 56.9297 118.984 56.8438 120.438 56.75C121.906 56.6562 123.375 56.6094 124.844 56.6094C125.219 56.6094 125.625 56.6172 126.062 56.6328C126.5 56.6484 126.938 56.6953 127.375 56.7734C127.828 56.8359 128.258 56.9297 128.664 57.0547C129.086 57.1797 129.461 57.3438 129.789 57.5469C130.586 58.0469 131.195 58.7188 131.617 59.5625C132.055 60.3906 132.273 61.2734 132.273 62.2109ZM126.836 61.8359C126.836 61.7109 126.828 61.5391 126.812 61.3203C126.812 61.1016 126.797 60.8828 126.766 60.6641C126.734 60.4297 126.688 60.2188 126.625 60.0312C126.562 59.8281 126.477 59.6797 126.367 59.5859C126.289 59.5234 126.156 59.4766 125.969 59.4453C125.781 59.4141 125.578 59.3906 125.359 59.375C125.156 59.3438 124.953 59.3281 124.75 59.3281C124.562 59.3125 124.43 59.3047 124.352 59.3047C123.727 59.3047 123.109 59.3359 122.5 59.3984C121.906 59.4609 121.312 59.5391 120.719 59.6328L121.352 64.1797C121.695 64.2578 122.055 64.3125 122.43 64.3438C122.805 64.375 123.172 64.3906 123.531 64.3906C123.688 64.3906 123.914 64.3828 124.211 64.3672C124.523 64.3516 124.836 64.3203 125.148 64.2734C125.477 64.2266 125.773 64.1641 126.039 64.0859C126.32 63.9922 126.516 63.875 126.625 63.7344C126.672 63.6719 126.711 63.5547 126.742 63.3828C126.773 63.1953 126.789 63.0078 126.789 62.8203C126.805 62.6172 126.812 62.4219 126.812 62.2344C126.828 62.0469 126.836 61.9141 126.836 61.8359ZM150.484 65.3047C148.438 65.4141 146.398 65.5078 144.367 65.5859C142.336 65.6484 140.297 65.7188 138.25 65.7969C138.234 65.8594 138.227 65.9219 138.227 65.9844C138.227 66.0469 138.227 66.1094 138.227 66.1719C138.227 66.7031 138.344 67.1094 138.578 67.3906C138.828 67.6719 139.133 67.875 139.492 68C139.852 68.1094 140.25 68.1719 140.688 68.1875C141.125 68.2031 141.531 68.2109 141.906 68.2109C142.953 68.2109 144 68.1797 145.047 68.1172C146.094 68.0391 147.148 67.9609 148.211 67.8828L148.398 71.6094C147.367 71.6562 146.336 71.6953 145.305 71.7266C144.289 71.7578 143.266 71.7734 142.234 71.7734C142.016 71.7734 141.609 71.7734 141.016 71.7734C140.438 71.7578 139.812 71.7344 139.141 71.7031C138.484 71.6562 137.867 71.6016 137.289 71.5391C136.711 71.4766 136.328 71.3906 136.141 71.2812C135.656 71 135.273 70.6406 134.992 70.2031C134.727 69.7656 134.516 69.2891 134.359 68.7734C134.219 68.2578 134.117 67.7344 134.055 67.2031C134.008 66.6562 133.977 66.1328 133.961 65.6328C133.945 65.5547 133.938 65.4766 133.938 65.3984C133.953 65.3047 133.961 65.2188 133.961 65.1406C133.961 64.3125 134.047 63.5469 134.219 62.8438C134.406 62.125 134.742 61.4297 135.227 60.7578C135.555 60.2891 136.039 59.8984 136.68 59.5859C137.32 59.2734 138.016 59.0312 138.766 58.8594C139.516 58.6719 140.266 58.5469 141.016 58.4844C141.766 58.4062 142.414 58.3672 142.961 58.3672C143.445 58.3672 144.039 58.4141 144.742 58.5078C145.445 58.5859 146.141 58.7266 146.828 58.9297C147.531 59.1328 148.164 59.3984 148.727 59.7266C149.289 60.0391 149.672 60.4297 149.875 60.8984C149.906 60.9922 149.938 61.1562 149.969 61.3906C150.016 61.6094 150.062 61.8672 150.109 62.1641C150.156 62.4453 150.195 62.75 150.227 63.0781C150.273 63.4062 150.312 63.7188 150.344 64.0156C150.375 64.3125 150.398 64.5781 150.414 64.8125C150.445 65.0469 150.469 65.2109 150.484 65.3047ZM147.297 63.5938C147.203 62.9062 147.023 62.3672 146.758 61.9766C146.508 61.5703 146.188 61.2734 145.797 61.0859C145.422 60.8828 144.984 60.7578 144.484 60.7109C144 60.6484 143.477 60.6172 142.914 60.6172C142.727 60.6172 142.492 60.625 142.211 60.6406C141.93 60.6406 141.648 60.6641 141.367 60.7109C141.086 60.7422 140.82 60.7969 140.57 60.875C140.32 60.9531 140.125 61.0625 139.984 61.2031C139.875 61.2969 139.781 61.4297 139.703 61.6016C139.641 61.7578 139.586 61.9297 139.539 62.1172C139.492 62.3047 139.453 62.4922 139.422 62.6797C139.406 62.8516 139.398 63 139.398 63.125C139.398 63.375 139.422 63.6172 139.469 63.8516L147.297 63.5938ZM167.406 61.6484C167.406 62.3672 167.312 63.0625 167.125 63.7344C167.016 63.75 166.688 63.7734 166.141 63.8047C165.609 63.8203 164.969 63.8516 164.219 63.8984C163.484 63.9297 162.688 63.9766 161.828 64.0391C160.984 64.0859 160.195 64.1406 159.461 64.2031C158.742 64.2656 158.125 64.3359 157.609 64.4141C157.109 64.4766 156.828 64.5391 156.766 64.6016C156.516 64.8203 156.328 65.0859 156.203 65.3984C156.078 65.7109 156.016 66.0234 156.016 66.3359C156.016 66.5234 156.031 66.6719 156.062 66.7812C156.109 66.875 156.18 66.9844 156.273 67.1094C156.32 67.1562 156.484 67.1953 156.766 67.2266C157.047 67.2578 157.359 67.2812 157.703 67.2969C158.047 67.3125 158.367 67.3281 158.664 67.3438C158.961 67.3438 159.133 67.3438 159.18 67.3438C160.305 67.3438 161.43 67.3203 162.555 67.2734C163.68 67.2266 164.805 67.1641 165.93 67.0859L166.117 71.1172C164.555 71.2422 162.984 71.3672 161.406 71.4922C159.844 71.6016 158.273 71.6562 156.695 71.6562C156.617 71.6562 156.5 71.6562 156.344 71.6562C156.203 71.6562 156.047 71.6562 155.875 71.6562C155.703 71.6406 155.539 71.625 155.383 71.6094C155.227 71.5938 155.117 71.5781 155.055 71.5625C154.727 71.4688 154.398 71.3672 154.07 71.2578C153.758 71.1328 153.461 70.9844 153.18 70.8125C152.898 70.625 152.648 70.4062 152.43 70.1562C152.227 69.9062 152.078 69.6016 151.984 69.2422C151.922 69.0078 151.867 68.7031 151.82 68.3281C151.789 67.9375 151.766 67.5391 151.75 67.1328C151.734 66.7266 151.719 66.3281 151.703 65.9375C151.703 65.5469 151.703 65.2188 151.703 64.9531C151.703 64.3438 151.711 63.7734 151.727 63.2422C151.742 62.7109 151.828 62.2266 151.984 61.7891C152.141 61.3359 152.391 60.9375 152.734 60.5938C153.094 60.2344 153.602 59.9219 154.258 59.6562C154.555 59.5312 155 59.4375 155.594 59.375C156.188 59.2969 156.805 59.2422 157.445 59.2109C158.102 59.1641 158.727 59.1328 159.32 59.1172C159.914 59.1016 160.375 59.0938 160.703 59.0938C161.797 59.0938 162.883 59.1172 163.961 59.1641C165.055 59.2109 166.148 59.2734 167.242 59.3516C167.289 59.7422 167.328 60.1328 167.359 60.5234C167.391 60.8984 167.406 61.2734 167.406 61.6484ZM186.391 64.7188C186.391 64.8438 186.391 64.9688 186.391 65.0938C186.391 65.2031 186.383 65.3203 186.367 65.4453C186.352 65.6641 186.312 66.0234 186.25 66.5234C186.188 67.0234 186.102 67.5469 185.992 68.0938C185.883 68.625 185.75 69.1172 185.594 69.5703C185.438 70.0234 185.266 70.3125 185.078 70.4375C184.984 70.5 184.664 70.5547 184.117 70.6016C183.586 70.6484 182.93 70.6953 182.148 70.7422C181.383 70.7891 180.547 70.8281 179.641 70.8594C178.734 70.8906 177.867 70.9219 177.039 70.9531C176.227 70.9688 175.508 70.9844 174.883 71C174.273 71.0156 173.867 71.0234 173.664 71.0234C173.57 71.0234 173.406 71.0234 173.172 71.0234C172.953 71.0234 172.719 71.0234 172.469 71.0234C172.219 71.0078 171.984 70.9922 171.766 70.9766C171.547 70.9609 171.391 70.9375 171.297 70.9062C171.078 70.8281 170.859 70.7031 170.641 70.5312C170.422 70.3438 170.219 70.1406 170.031 69.9219C169.844 69.6875 169.672 69.4531 169.516 69.2188C169.375 68.9688 169.273 68.7344 169.211 68.5156C169.164 68.3438 169.125 68.0859 169.094 67.7422C169.062 67.3828 169.039 67.0156 169.023 66.6406C169.008 66.25 168.992 65.875 168.977 65.5156C168.977 65.1562 168.977 64.8828 168.977 64.6953C168.977 64.3984 168.984 63.9922 169 63.4766C169.016 62.9453 169.062 62.4062 169.141 61.8594C169.219 61.3125 169.328 60.8047 169.469 60.3359C169.625 59.8516 169.844 59.5156 170.125 59.3281C170.25 59.25 170.484 59.1797 170.828 59.1172C171.172 59.0547 171.578 59 172.047 58.9531C172.516 58.9062 173.016 58.875 173.547 58.8594C174.078 58.8281 174.594 58.8125 175.094 58.8125C175.609 58.7969 176.086 58.7891 176.523 58.7891C176.961 58.7891 177.312 58.7969 177.578 58.8125C177.812 58.8281 178.148 58.8438 178.586 58.8594C179.023 58.8594 179.508 58.8672 180.039 58.8828C180.586 58.8984 181.148 58.9297 181.727 58.9766C182.305 59.0078 182.844 59.0547 183.344 59.1172C183.844 59.1797 184.281 59.2656 184.656 59.375C185.047 59.4688 185.305 59.5859 185.43 59.7266C185.633 59.9453 185.797 60.2734 185.922 60.7109C186.047 61.1484 186.141 61.6172 186.203 62.1172C186.281 62.6016 186.328 63.0859 186.344 63.5703C186.375 64.0391 186.391 64.4219 186.391 64.7188ZM181.422 65.2109C181.422 65.0234 181.414 64.8047 181.398 64.5547C181.383 64.3047 181.359 64.0547 181.328 63.8047C181.297 63.5391 181.25 63.2891 181.188 63.0547C181.125 62.8047 181.047 62.6016 180.953 62.4453C180.828 62.2422 180.586 62.0859 180.227 61.9766C179.867 61.8672 179.469 61.7891 179.031 61.7422C178.609 61.6797 178.188 61.6406 177.766 61.625C177.359 61.6094 177.055 61.6016 176.852 61.6016C176.742 61.6016 176.547 61.6094 176.266 61.625C175.984 61.625 175.688 61.6328 175.375 61.6484C175.078 61.6641 174.797 61.6953 174.531 61.7422C174.266 61.7734 174.094 61.8125 174.016 61.8594C173.875 61.9531 173.766 62.1016 173.688 62.3047C173.609 62.4922 173.547 62.7031 173.5 62.9375C173.469 63.1719 173.445 63.4062 173.43 63.6406C173.43 63.8594 173.43 64.0391 173.43 64.1797C173.43 64.3203 173.438 64.5781 173.453 64.9531C173.484 65.3125 173.516 65.7031 173.547 66.125C173.594 66.5312 173.648 66.9062 173.711 67.25C173.773 67.5938 173.852 67.8125 173.945 67.9062C174.055 68.0312 174.258 68.1328 174.555 68.2109C174.867 68.2891 175.195 68.3594 175.539 68.4219C175.898 68.4688 176.242 68.5078 176.57 68.5391C176.898 68.5547 177.133 68.5625 177.273 68.5625C177.523 68.5625 177.82 68.5547 178.164 68.5391C178.508 68.5234 178.852 68.4844 179.195 68.4219C179.555 68.3594 179.891 68.2734 180.203 68.1641C180.516 68.0547 180.766 67.9062 180.953 67.7188C181.062 67.6094 181.148 67.4453 181.211 67.2266C181.273 67.0078 181.32 66.7734 181.352 66.5234C181.383 66.2734 181.398 66.0312 181.398 65.7969C181.414 65.5469 181.422 65.3516 181.422 65.2109ZM202.375 64.1094V64.6484L197.852 64.8594C197.898 64.6562 197.922 64.4219 197.922 64.1562C197.922 63.7656 197.867 63.5156 197.758 63.4062C197.648 63.2812 197.406 63.2188 197.031 63.2188C196.5 63.2188 195.914 63.3125 195.273 63.5C194.633 63.6875 194.07 63.8672 193.586 64.0391C193.508 64.7266 193.445 65.4141 193.398 66.1016C193.352 66.7891 193.328 67.4766 193.328 68.1641C193.328 68.9297 193.328 69.6953 193.328 70.4609C193.344 71.2109 193.359 71.9688 193.375 72.7344L189.344 72.9922C189.266 71.9922 189.188 71 189.109 70.0156C189.031 69.0156 188.961 68.0156 188.898 67.0156C188.82 65.6875 188.719 64.3672 188.594 63.0547C188.469 61.7266 188.344 60.3906 188.219 59.0469C189.109 59.1094 189.992 59.2031 190.867 59.3281C191.758 59.4375 192.648 59.5781 193.539 59.75L193.422 61.7188C193.891 61.3438 194.336 61.0234 194.758 60.7578C195.195 60.4766 195.633 60.2422 196.07 60.0547C196.523 59.8672 197 59.7344 197.5 59.6562C198 59.5625 198.555 59.5156 199.164 59.5156C199.57 59.5156 199.992 59.5625 200.43 59.6562C200.867 59.7344 201.242 59.9297 201.555 60.2422C201.711 60.4141 201.844 60.6719 201.953 61.0156C202.062 61.3594 202.148 61.7266 202.211 62.1172C202.273 62.4922 202.312 62.8672 202.328 63.2422C202.359 63.6016 202.375 63.8906 202.375 64.1094ZM219.766 60.9688C219.766 61.625 219.766 62.2734 219.766 62.9141C219.766 63.5547 219.75 64.2031 219.719 64.8594C219.688 66.2969 219.625 67.7266 219.531 69.1484C219.438 70.5547 219.336 71.9688 219.227 73.3906C217.805 73.4844 216.398 73.5625 215.008 73.625C213.617 73.6875 212.211 73.7188 210.789 73.7188C210.602 73.7188 210.305 73.7188 209.898 73.7188C209.492 73.7031 209.055 73.6875 208.586 73.6719C208.133 73.6562 207.703 73.6328 207.297 73.6016C206.891 73.5547 206.594 73.4922 206.406 73.4141C205.203 72.9766 204.305 72.3906 203.711 71.6562C203.133 70.9062 202.844 69.875 202.844 68.5625V68.1875C202.875 67.6094 202.922 67.0938 202.984 66.6406C203.047 66.1875 203.156 65.7734 203.312 65.3984C203.484 65.0234 203.711 64.6797 203.992 64.3672C204.289 64.0391 204.688 63.7109 205.188 63.3828C205.531 63.1484 205.938 62.9531 206.406 62.7969C206.875 62.6406 207.359 62.5078 207.859 62.3984C208.375 62.2891 208.875 62.2109 209.359 62.1641C209.859 62.1172 210.312 62.0938 210.719 62.0938C211.469 62.0938 212.211 62.1484 212.945 62.2578C213.695 62.3672 214.438 62.5312 215.172 62.75C215.094 61.7188 215.023 60.7031 214.961 59.7031C214.914 58.6875 214.836 57.6719 214.727 56.6562C215.57 56.5781 216.406 56.4922 217.234 56.3984C218.062 56.3047 218.891 56.2109 219.719 56.1172C219.734 56.9297 219.742 57.7422 219.742 58.5547C219.758 59.3516 219.766 60.1562 219.766 60.9688ZM216.18 68.0469C216.18 67.6875 216.18 67.3281 216.18 66.9688C216.18 66.6094 216.172 66.25 216.156 65.8906C215.172 65.8438 214.188 65.8203 213.203 65.8203C213.062 65.8203 212.766 65.8281 212.312 65.8438C211.859 65.8438 211.375 65.8594 210.859 65.8906C210.359 65.9062 209.891 65.9453 209.453 66.0078C209.016 66.0547 208.734 66.1172 208.609 66.1953C208.375 66.3672 208.227 66.6094 208.164 66.9219C208.117 67.2344 208.094 67.5234 208.094 67.7891C208.094 67.9141 208.102 68.0859 208.117 68.3047C208.133 68.5078 208.156 68.7266 208.188 68.9609C208.234 69.1797 208.289 69.3906 208.352 69.5938C208.414 69.7812 208.484 69.9219 208.562 70.0156C208.609 70.0625 208.688 70.1016 208.797 70.1328C208.922 70.1641 209.055 70.1875 209.195 70.2031C209.336 70.2188 209.469 70.2266 209.594 70.2266C209.734 70.2266 209.844 70.2266 209.922 70.2266C210.812 70.2266 211.695 70.1875 212.57 70.1094C213.445 70.0312 214.328 69.9297 215.219 69.8047C215.344 69.7734 215.492 69.7578 215.664 69.7578C215.836 69.7422 215.992 69.7109 216.133 69.6641V69.6172C216.133 69.6016 216.141 69.5859 216.156 69.5703C216.188 69.3203 216.195 69.0703 216.18 68.8203C216.18 68.5703 216.18 68.3125 216.18 68.0469ZM226.281 58.3203C226.281 58.6328 226.211 58.9297 226.07 59.2109C225.945 59.4766 225.766 59.7109 225.531 59.9141C225.312 60.1172 225.062 60.2812 224.781 60.4062C224.5 60.5156 224.219 60.5703 223.938 60.5703C223.625 60.5703 223.328 60.5 223.047 60.3594C222.781 60.2188 222.547 60.0391 222.344 59.8203C222.141 59.6016 221.984 59.3516 221.875 59.0703C221.766 58.7734 221.711 58.4766 221.711 58.1797C221.711 57.8828 221.766 57.6094 221.875 57.3594C222 57.0938 222.156 56.8672 222.344 56.6797C222.547 56.4922 222.773 56.3438 223.023 56.2344C223.289 56.125 223.57 56.0703 223.867 56.0703C224.164 56.0703 224.453 56.1328 224.734 56.2578C225.031 56.3672 225.289 56.5312 225.508 56.75C225.742 56.9531 225.93 57.1953 226.07 57.4766C226.211 57.7422 226.281 58.0234 226.281 58.3203ZM227.242 62.3047C227.164 63.1328 227.102 63.9531 227.055 64.7656C227.008 65.5781 226.961 66.3906 226.914 67.2031C226.852 68.1562 226.742 69.1016 226.586 70.0391C226.445 70.9766 226.281 71.9141 226.094 72.8516L222.508 73.2266C222.508 72.7266 222.508 72.2344 222.508 71.75C222.523 71.2656 222.531 70.7734 222.531 70.2734C222.531 68.9922 222.508 67.7109 222.461 66.4297C222.414 65.1484 222.367 63.8672 222.32 62.5859C223.148 62.5547 223.961 62.5078 224.758 62.4453C225.57 62.3828 226.398 62.3359 227.242 62.3047ZM243.578 67.0391C243.578 67.4609 243.578 67.8906 243.578 68.3281C243.578 68.75 243.562 69.1719 243.531 69.5938L238.305 69.9219C238.367 69.1094 238.414 68.3047 238.445 67.5078C238.492 66.7109 238.516 65.8984 238.516 65.0703C238.516 64.9922 238.516 64.8594 238.516 64.6719C238.516 64.4844 238.508 64.2891 238.492 64.0859C238.477 63.8672 238.461 63.6641 238.445 63.4766C238.43 63.2891 238.414 63.1562 238.398 63.0781C238.32 62.8594 238.234 62.6719 238.141 62.5156C238.062 62.3594 237.961 62.2344 237.836 62.1406C237.727 62.0469 237.586 61.9844 237.414 61.9531C237.242 61.9062 237.031 61.8828 236.781 61.8828C236.594 61.8828 236.352 61.8984 236.055 61.9297C235.773 61.9609 235.484 62.0078 235.188 62.0703C234.891 62.1328 234.609 62.2109 234.344 62.3047C234.078 62.3984 233.891 62.5078 233.781 62.6328L233.734 69.5469C233.703 69.4844 233.609 69.4531 233.453 69.4531C233.312 69.4531 233.211 69.4531 233.148 69.4531C232.68 69.4531 232.195 69.4766 231.695 69.5234C231.195 69.5547 230.711 69.6016 230.242 69.6641C230.039 67.8203 229.859 65.9844 229.703 64.1562C229.547 62.3281 229.367 60.4922 229.164 58.6484C229.477 58.6328 229.789 58.625 230.102 58.625C230.414 58.6094 230.727 58.6016 231.039 58.6016C231.445 58.6016 231.852 58.6172 232.258 58.6484C232.68 58.6641 233.094 58.6797 233.5 58.6953L233.664 60.5C234.102 59.7812 234.695 59.1797 235.445 58.6953C236.195 58.2109 237 57.9688 237.859 57.9688C238.297 57.9688 238.75 57.9922 239.219 58.0391C239.688 58.0859 240.133 58.1797 240.555 58.3203C240.992 58.4609 241.398 58.6562 241.773 58.9062C242.164 59.1562 242.492 59.4766 242.758 59.8672C242.883 60.0547 242.984 60.3359 243.062 60.7109C243.156 61.0703 243.234 61.4844 243.297 61.9531C243.359 62.4062 243.406 62.8906 243.438 63.4062C243.484 63.9219 243.516 64.4141 243.531 64.8828C243.547 65.3516 243.555 65.7812 243.555 66.1719C243.57 66.5469 243.578 66.8359 243.578 67.0391ZM261.484 65.7031C261.484 66.3594 261.477 67.0156 261.461 67.6719C261.461 68.3125 261.461 68.9609 261.461 69.6172C261.445 69.9609 261.438 70.3125 261.438 70.6719C261.453 71.0312 261.445 71.3906 261.414 71.75C261.367 72.0938 261.32 72.4609 261.273 72.8516C261.227 73.2266 261.148 73.6016 261.039 73.9766C260.93 74.3516 260.781 74.7031 260.594 75.0312C260.422 75.3594 260.188 75.6406 259.891 75.875C259.812 75.9375 259.656 75.9922 259.422 76.0391C259.188 76.0859 258.914 76.1328 258.602 76.1797C258.289 76.2266 257.953 76.2656 257.594 76.2969C257.234 76.3281 256.891 76.3516 256.562 76.3672C256.234 76.3984 255.938 76.4219 255.672 76.4375C255.406 76.4688 255.219 76.4844 255.109 76.4844C254.125 76.5156 253.148 76.5391 252.18 76.5547C251.227 76.5703 250.258 76.5781 249.273 76.5781H247.773C247.742 76.3125 247.711 76.0391 247.68 75.7578C247.648 75.4766 247.633 75.1953 247.633 74.9141C247.633 74.6016 247.602 74.2812 247.539 73.9531C247.477 73.6094 247.406 73.2734 247.328 72.9453L248.875 72.9688C248.969 72.9688 249.227 72.9688 249.648 72.9688C250.086 72.9531 250.594 72.9453 251.172 72.9453C251.75 72.9297 252.367 72.9141 253.023 72.8984C253.695 72.8672 254.312 72.8281 254.875 72.7812C255.438 72.7344 255.914 72.6797 256.305 72.6172C256.711 72.5547 256.938 72.4844 256.984 72.4062C257.109 72.2031 257.188 71.9766 257.219 71.7266C257.25 71.4609 257.266 71.2109 257.266 70.9766C257.266 70.8516 257.258 70.7266 257.242 70.6016C257.242 70.4609 257.234 70.3281 257.219 70.2031C256.344 70.2656 255.477 70.3203 254.617 70.3672C253.758 70.4141 252.883 70.4375 251.992 70.4375C251.789 70.4375 251.531 70.4375 251.219 70.4375C250.922 70.4375 250.609 70.4297 250.281 70.4141C249.969 70.3984 249.656 70.375 249.344 70.3438C249.047 70.3125 248.805 70.2656 248.617 70.2031C248.305 70.1094 247.984 70.0078 247.656 69.8984C247.344 69.7734 247.047 69.625 246.766 69.4531C246.484 69.2812 246.234 69.0781 246.016 68.8438C245.812 68.5938 245.672 68.2969 245.594 67.9531C245.547 67.7812 245.516 67.5938 245.5 67.3906C245.5 67.1875 245.5 67 245.5 66.8281C245.5 66.3906 245.523 65.8359 245.57 65.1641C245.617 64.4922 245.695 63.8125 245.805 63.125C245.93 62.4219 246.086 61.7656 246.273 61.1562C246.477 60.5312 246.727 60.0625 247.023 59.75C247.195 59.5625 247.469 59.3984 247.844 59.2578C248.234 59.1172 248.672 59 249.156 58.9062C249.641 58.8125 250.148 58.7344 250.68 58.6719C251.227 58.5938 251.758 58.5391 252.273 58.5078C252.789 58.4766 253.258 58.4531 253.68 58.4375C254.117 58.4219 254.461 58.4141 254.711 58.4141C255.586 58.4141 256.461 58.4375 257.336 58.4844L257.5 56.9844L261.438 57.5703C261.453 58.9297 261.461 60.2812 261.461 61.625C261.477 62.9688 261.484 64.3281 261.484 65.7031ZM257.336 65.2578C257.336 64.7578 257.328 64.2734 257.312 63.8047C257.297 63.3203 257.273 62.8281 257.242 62.3281C256.555 62.1719 255.867 62.0469 255.18 61.9531C254.492 61.8594 253.789 61.8125 253.07 61.8125C252.945 61.8125 252.758 61.8203 252.508 61.8359C252.258 61.8516 251.992 61.8828 251.711 61.9297C251.445 61.9609 251.195 62.0156 250.961 62.0938C250.727 62.1562 250.562 62.2344 250.469 62.3281C250.328 62.4844 250.242 62.6641 250.211 62.8672C250.18 63.0703 250.164 63.2734 250.164 63.4766C250.164 63.6484 250.18 63.9141 250.211 64.2734C250.258 64.6172 250.312 64.9766 250.375 65.3516C250.438 65.7266 250.516 66.0781 250.609 66.4062C250.703 66.7344 250.797 66.9609 250.891 67.0859C250.984 67.2109 251.102 67.3047 251.242 67.3672C251.383 67.4297 251.531 67.4766 251.688 67.5078C251.859 67.5234 252.023 67.5391 252.18 67.5547C252.352 67.5547 252.5 67.5547 252.625 67.5547C252.938 67.5547 253.312 67.5469 253.75 67.5312C254.203 67.5 254.648 67.4531 255.086 67.3906C255.539 67.3281 255.961 67.2422 256.352 67.1328C256.742 67.0078 257.039 66.8438 257.242 66.6406C257.273 66.625 257.297 66.5469 257.312 66.4062C257.328 66.2656 257.336 66.1172 257.336 65.9609C257.336 65.8047 257.336 65.6562 257.336 65.5156C257.336 65.375 257.336 65.2891 257.336 65.2578Z"/>
</mask>
<path d="M53.3125 69.875C53.3125 70.625 53.1328 71.2344 52.7734 71.7031C52.4141 72.1562 51.9062 72.5234 51.25 72.8047C50.7031 73.0391 50.0156 73.2266 49.1875 73.3672C48.3594 73.4922 47.5 73.5859 46.6094 73.6484C45.7188 73.6953 44.8438 73.7266 43.9844 73.7422C43.125 73.7578 42.4062 73.7656 41.8281 73.7656C40.8438 73.7656 39.8672 73.75 38.8984 73.7188C37.9453 73.6875 36.9766 73.6406 35.9922 73.5781C36.0391 71.9844 35.9922 70.4062 35.8516 68.8438C37.0234 68.875 38.1875 68.9062 39.3438 68.9375C40.5156 68.9531 41.6875 68.9766 42.8594 69.0078C43.3125 69.0234 43.7656 69.0391 44.2188 69.0547C44.6875 69.0703 45.1562 69.0781 45.625 69.0781C45.7031 69.0781 45.8203 69.0781 45.9766 69.0781C46.1328 69.0781 46.2969 69.0703 46.4688 69.0547C46.6406 69.0391 46.7969 69.0156 46.9375 68.9844C47.0938 68.9531 47.2109 68.9062 47.2891 68.8438C47.3516 68.7812 47.3906 68.6953 47.4062 68.5859C47.4219 68.4609 47.4297 68.3516 47.4297 68.2578C47.4297 68.0859 47.4062 67.8828 47.3594 67.6484C47.3125 67.3984 47.2422 67.1953 47.1484 67.0391C47.1328 67.0234 47.0781 67.0078 46.9844 66.9922C46.9062 66.9766 46.8125 66.9688 46.7031 66.9688C46.5938 66.9531 46.4922 66.9453 46.3984 66.9453C46.3047 66.9297 46.25 66.9219 46.2344 66.9219C45.2344 66.8438 44.2344 66.7891 43.2344 66.7578C42.25 66.7266 41.2578 66.6719 40.2578 66.5938C39.8047 66.5469 39.3359 66.5 38.8516 66.4531C38.3828 66.4062 37.9453 66.3203 37.5391 66.1953C37.1484 66.0859 36.8125 65.8438 36.5312 65.4688C36.2656 65.0781 36.0469 64.6406 35.875 64.1562C35.7188 63.6562 35.6016 63.1562 35.5234 62.6562C35.4609 62.1562 35.4297 61.7344 35.4297 61.3906C35.4297 60.8281 35.4844 60.2969 35.5938 59.7969C35.7031 59.2812 35.875 58.8047 36.1094 58.3672C36.3594 57.9297 36.6719 57.5469 37.0469 57.2188C37.4219 56.875 37.8828 56.5938 38.4297 56.375C39.3672 56.0156 40.3672 55.7656 41.4297 55.625C42.5078 55.4844 43.5391 55.4141 44.5234 55.4141C45.6797 55.4141 46.8203 55.4844 47.9453 55.625C49.0703 55.7656 50.1953 55.9453 51.3203 56.1641C51.3047 56.6172 51.2891 57.0703 51.2734 57.5234C51.2734 57.9609 51.2734 58.4062 51.2734 58.8594C51.2734 59.3125 51.2969 59.7734 51.3438 60.2422C51.3906 60.6953 51.4375 61.1484 51.4844 61.6016C50 61.6328 48.5156 61.6641 47.0312 61.6953C45.5625 61.7109 44.0781 61.75 42.5781 61.8125C42.3906 61.8125 42.1328 61.8203 41.8047 61.8359C41.4922 61.8516 41.1875 61.875 40.8906 61.9062C40.5938 61.9219 40.3359 61.9375 40.1172 61.9531C39.8984 61.9688 39.7891 61.9766 39.7891 61.9766C39.7109 62.1484 39.6641 62.3281 39.6484 62.5156C39.6328 62.6875 39.625 62.8672 39.625 63.0547C39.625 63.1484 39.625 63.2656 39.625 63.4062C39.6406 63.5469 39.6797 63.6562 39.7422 63.7344C39.7578 63.75 39.8906 63.7734 40.1406 63.8047C40.3906 63.8359 40.6641 63.8672 40.9609 63.8984C41.2734 63.9297 41.5625 63.9609 41.8281 63.9922C42.1094 64.0234 42.2812 64.0391 42.3438 64.0391C42.8594 64.0859 43.4609 64.1406 44.1484 64.2031C44.8516 64.2656 45.5625 64.3359 46.2812 64.4141C47.0156 64.4922 47.7188 64.5938 48.3906 64.7188C49.0625 64.8281 49.6484 64.9609 50.1484 65.1172C50.6016 65.2734 51.0156 65.5234 51.3906 65.8672C51.7812 66.1953 52.1172 66.5859 52.3984 67.0391C52.6797 67.4766 52.8984 67.9453 53.0547 68.4453C53.2266 68.9297 53.3125 69.4062 53.3125 69.875ZM66.6484 69.8516L66.25 73.9766C65.75 74.0078 65.25 74.0312 64.75 74.0469C64.25 74.0781 63.75 74.0938 63.25 74.0938C62.9844 74.0938 62.6328 74.0859 62.1953 74.0703C61.7578 74.0547 61.3047 74.0312 60.8359 74C60.3672 73.9531 59.9219 73.8984 59.5 73.8359C59.0781 73.7578 58.7422 73.6641 58.4922 73.5547C58.1172 73.3828 57.8047 73.1562 57.5547 72.875C57.3203 72.5938 57.125 72.2891 56.9688 71.9609C56.8125 71.6172 56.6875 71.2578 56.5938 70.8828C56.5 70.4922 56.4297 70.1094 56.3828 69.7344C56.3359 69.375 56.2969 68.9922 56.2656 68.5859C56.25 68.1641 56.2344 67.7344 56.2188 67.2969C56.2188 66.8594 56.2188 66.4375 56.2188 66.0312C56.2188 65.6094 56.2188 65.2188 56.2188 64.8594V64.1562H54.7656C54.8281 63.4531 54.8594 62.7578 54.8594 62.0703C54.875 61.3828 54.9141 60.6875 54.9766 59.9844L56.3828 60.0312V56.5625C57.2734 56.7344 58.1562 56.8281 59.0312 56.8438C59.9219 56.8438 60.8125 56.875 61.7031 56.9375L61.6562 60.5234L63.625 60.6406C63.625 60.75 63.625 60.8516 63.625 60.9453C63.6406 61.0391 63.6484 61.1406 63.6484 61.25C63.6484 61.6875 63.6094 62.1172 63.5312 62.5391C63.4688 62.9453 63.3828 63.3594 63.2734 63.7812H61.5625C61.5312 64.5 61.5078 65.2188 61.4922 65.9375C61.4766 66.6562 61.4688 67.375 61.4688 68.0938C61.4688 68.4375 61.4766 68.75 61.4922 69.0312C61.5234 69.2969 61.5859 69.5234 61.6797 69.7109C61.7891 69.8984 61.9609 70.0391 62.1953 70.1328C62.4297 70.2266 62.7578 70.2734 63.1797 70.2734C63.7578 70.2734 64.3359 70.2344 64.9141 70.1562C65.4922 70.0781 66.0703 69.9766 66.6484 69.8516ZM83.9453 64.7188C83.9453 64.8438 83.9453 64.9688 83.9453 65.0938C83.9453 65.2031 83.9375 65.3203 83.9219 65.4453C83.9062 65.6641 83.8672 66.0234 83.8047 66.5234C83.7422 67.0234 83.6562 67.5469 83.5469 68.0938C83.4375 68.625 83.3047 69.1172 83.1484 69.5703C82.9922 70.0234 82.8203 70.3125 82.6328 70.4375C82.5391 70.5 82.2188 70.5547 81.6719 70.6016C81.1406 70.6484 80.4844 70.6953 79.7031 70.7422C78.9375 70.7891 78.1016 70.8281 77.1953 70.8594C76.2891 70.8906 75.4219 70.9219 74.5938 70.9531C73.7812 70.9688 73.0625 70.9844 72.4375 71C71.8281 71.0156 71.4219 71.0234 71.2188 71.0234C71.125 71.0234 70.9609 71.0234 70.7266 71.0234C70.5078 71.0234 70.2734 71.0234 70.0234 71.0234C69.7734 71.0078 69.5391 70.9922 69.3203 70.9766C69.1016 70.9609 68.9453 70.9375 68.8516 70.9062C68.6328 70.8281 68.4141 70.7031 68.1953 70.5312C67.9766 70.3438 67.7734 70.1406 67.5859 69.9219C67.3984 69.6875 67.2266 69.4531 67.0703 69.2188C66.9297 68.9688 66.8281 68.7344 66.7656 68.5156C66.7188 68.3438 66.6797 68.0859 66.6484 67.7422C66.6172 67.3828 66.5938 67.0156 66.5781 66.6406C66.5625 66.25 66.5469 65.875 66.5312 65.5156C66.5312 65.1562 66.5312 64.8828 66.5312 64.6953C66.5312 64.3984 66.5391 63.9922 66.5547 63.4766C66.5703 62.9453 66.6172 62.4062 66.6953 61.8594C66.7734 61.3125 66.8828 60.8047 67.0234 60.3359C67.1797 59.8516 67.3984 59.5156 67.6797 59.3281C67.8047 59.25 68.0391 59.1797 68.3828 59.1172C68.7266 59.0547 69.1328 59 69.6016 58.9531C70.0703 58.9062 70.5703 58.875 71.1016 58.8594C71.6328 58.8281 72.1484 58.8125 72.6484 58.8125C73.1641 58.7969 73.6406 58.7891 74.0781 58.7891C74.5156 58.7891 74.8672 58.7969 75.1328 58.8125C75.3672 58.8281 75.7031 58.8438 76.1406 58.8594C76.5781 58.8594 77.0625 58.8672 77.5938 58.8828C78.1406 58.8984 78.7031 58.9297 79.2812 58.9766C79.8594 59.0078 80.3984 59.0547 80.8984 59.1172C81.3984 59.1797 81.8359 59.2656 82.2109 59.375C82.6016 59.4688 82.8594 59.5859 82.9844 59.7266C83.1875 59.9453 83.3516 60.2734 83.4766 60.7109C83.6016 61.1484 83.6953 61.6172 83.7578 62.1172C83.8359 62.6016 83.8828 63.0859 83.8984 63.5703C83.9297 64.0391 83.9453 64.4219 83.9453 64.7188ZM78.9766 65.2109C78.9766 65.0234 78.9688 64.8047 78.9531 64.5547C78.9375 64.3047 78.9141 64.0547 78.8828 63.8047C78.8516 63.5391 78.8047 63.2891 78.7422 63.0547C78.6797 62.8047 78.6016 62.6016 78.5078 62.4453C78.3828 62.2422 78.1406 62.0859 77.7812 61.9766C77.4219 61.8672 77.0234 61.7891 76.5859 61.7422C76.1641 61.6797 75.7422 61.6406 75.3203 61.625C74.9141 61.6094 74.6094 61.6016 74.4062 61.6016C74.2969 61.6016 74.1016 61.6094 73.8203 61.625C73.5391 61.625 73.2422 61.6328 72.9297 61.6484C72.6328 61.6641 72.3516 61.6953 72.0859 61.7422C71.8203 61.7734 71.6484 61.8125 71.5703 61.8594C71.4297 61.9531 71.3203 62.1016 71.2422 62.3047C71.1641 62.4922 71.1016 62.7031 71.0547 62.9375C71.0234 63.1719 71 63.4062 70.9844 63.6406C70.9844 63.8594 70.9844 64.0391 70.9844 64.1797C70.9844 64.3203 70.9922 64.5781 71.0078 64.9531C71.0391 65.3125 71.0703 65.7031 71.1016 66.125C71.1484 66.5312 71.2031 66.9062 71.2656 67.25C71.3281 67.5938 71.4062 67.8125 71.5 67.9062C71.6094 68.0312 71.8125 68.1328 72.1094 68.2109C72.4219 68.2891 72.75 68.3594 73.0938 68.4219C73.4531 68.4688 73.7969 68.5078 74.125 68.5391C74.4531 68.5547 74.6875 68.5625 74.8281 68.5625C75.0781 68.5625 75.375 68.5547 75.7188 68.5391C76.0625 68.5234 76.4062 68.4844 76.75 68.4219C77.1094 68.3594 77.4453 68.2734 77.7578 68.1641C78.0703 68.0547 78.3203 67.9062 78.5078 67.7188C78.6172 67.6094 78.7031 67.4453 78.7656 67.2266C78.8281 67.0078 78.875 66.7734 78.9062 66.5234C78.9375 66.2734 78.9531 66.0312 78.9531 65.7969C78.9688 65.5469 78.9766 65.3516 78.9766 65.2109ZM102.953 66.0078C102.953 66.2266 102.945 66.4688 102.93 66.7344C102.93 66.9844 102.906 67.2422 102.859 67.5078C102.828 67.7734 102.773 68.0312 102.695 68.2812C102.633 68.5156 102.539 68.7266 102.414 68.9141C102.148 69.3047 101.898 69.6406 101.664 69.9219C101.43 70.1875 101.172 70.4141 100.891 70.6016C100.625 70.7734 100.32 70.9141 99.9766 71.0234C99.6328 71.1328 99.2266 71.2188 98.7578 71.2812C98.0547 71.3906 97.3594 71.4922 96.6719 71.5859C95.9844 71.6641 95.2891 71.7031 94.5859 71.7031C94.2734 71.7031 93.9531 71.6875 93.625 71.6562C93.2969 71.625 92.9922 71.5234 92.7109 71.3516C92.5547 71.2734 92.3828 71.1719 92.1953 71.0469C92.0234 70.9062 91.8516 70.7656 91.6797 70.625C91.5078 70.4688 91.3359 70.3203 91.1641 70.1797C91.0078 70.0234 90.8672 69.8906 90.7422 69.7812L90.6016 75.6641C90.1641 75.6953 89.7266 75.7031 89.2891 75.6875C88.8516 75.6875 88.4062 75.6875 87.9531 75.6875C87.6875 75.6875 87.4297 75.6875 87.1797 75.6875C86.9453 75.7031 86.6953 75.7188 86.4297 75.7344C86.4922 74.3906 86.5469 73.0547 86.5938 71.7266C86.6562 70.3828 86.6875 69.0469 86.6875 67.7188V67.4375C86.6875 65.9531 86.6484 64.4766 86.5703 63.0078C86.4922 61.5391 86.4219 60.0625 86.3594 58.5781C87.1406 58.5156 87.9141 58.4609 88.6797 58.4141C89.4453 58.3672 90.2188 58.3125 91 58.25L91.1641 59.4922C92.2422 59.3672 93.3203 59.2656 94.3984 59.1875C95.4922 59.0938 96.5859 59.0469 97.6797 59.0469C97.8203 59.0469 97.9688 59.0469 98.125 59.0469C98.2969 59.0312 98.4531 59.0391 98.5938 59.0703C98.9688 59.1484 99.3516 59.25 99.7422 59.375C100.133 59.4844 100.5 59.6328 100.844 59.8203C101.188 60.0078 101.492 60.25 101.758 60.5469C102.023 60.8281 102.227 61.1719 102.367 61.5781C102.461 61.8906 102.547 62.2344 102.625 62.6094C102.703 62.9844 102.766 63.375 102.812 63.7812C102.859 64.1719 102.891 64.5625 102.906 64.9531C102.938 65.3281 102.953 65.6797 102.953 66.0078ZM98.3359 65.5859C98.3359 65.3984 98.3203 65.1953 98.2891 64.9766C98.2578 64.7578 98.1797 64.5781 98.0547 64.4375C97.7422 64.0781 97.3516 63.8047 96.8828 63.6172C96.4141 63.4141 95.9531 63.3125 95.5 63.3125C95.125 63.3125 94.7188 63.3516 94.2812 63.4297C93.8438 63.4922 93.4062 63.5859 92.9688 63.7109C92.5312 63.8203 92.1016 63.9531 91.6797 64.1094C91.2578 64.25 90.875 64.3906 90.5312 64.5312L90.7422 67.6719C91.3203 67.8438 91.9375 68 92.5938 68.1406C93.2656 68.2812 93.8984 68.3516 94.4922 68.3516C94.6484 68.3516 94.8906 68.3594 95.2188 68.375C95.5469 68.375 95.8828 68.3672 96.2266 68.3516C96.5859 68.3203 96.9141 68.2812 97.2109 68.2344C97.5234 68.1875 97.7266 68.1016 97.8203 67.9766C97.8984 67.8828 97.9688 67.7344 98.0312 67.5312C98.0938 67.3125 98.1484 67.0859 98.1953 66.8516C98.2422 66.6016 98.2734 66.3672 98.2891 66.1484C98.3203 65.9141 98.3359 65.7266 98.3359 65.5859ZM132.273 62.2109C132.273 63.4922 131.883 64.5 131.102 65.2344C130.32 65.9688 129.289 66.3672 128.008 66.4297C129.555 69.0078 130.906 71.6484 132.062 74.3516L125.219 74.5156C125.094 73.25 124.906 72.0859 124.656 71.0234C124.406 69.9609 124.055 68.8438 123.602 67.6719C123.086 67.7031 122.57 67.7422 122.055 67.7891C121.555 67.8359 121.055 67.875 120.555 67.9062L120.672 73.2266C119.781 73.2734 118.891 73.2969 118 73.2969C117.547 73.2969 117.102 73.2891 116.664 73.2734C116.242 73.2578 115.812 73.2266 115.375 73.1797C115.484 71.7422 115.586 70.3125 115.68 68.8906C115.773 67.4531 115.828 66.0234 115.844 64.6016C115.891 62.0703 115.961 59.5391 116.055 57.0078C117.523 56.9297 118.984 56.8438 120.438 56.75C121.906 56.6562 123.375 56.6094 124.844 56.6094C125.219 56.6094 125.625 56.6172 126.062 56.6328C126.5 56.6484 126.938 56.6953 127.375 56.7734C127.828 56.8359 128.258 56.9297 128.664 57.0547C129.086 57.1797 129.461 57.3438 129.789 57.5469C130.586 58.0469 131.195 58.7188 131.617 59.5625C132.055 60.3906 132.273 61.2734 132.273 62.2109ZM126.836 61.8359C126.836 61.7109 126.828 61.5391 126.812 61.3203C126.812 61.1016 126.797 60.8828 126.766 60.6641C126.734 60.4297 126.688 60.2188 126.625 60.0312C126.562 59.8281 126.477 59.6797 126.367 59.5859C126.289 59.5234 126.156 59.4766 125.969 59.4453C125.781 59.4141 125.578 59.3906 125.359 59.375C125.156 59.3438 124.953 59.3281 124.75 59.3281C124.562 59.3125 124.43 59.3047 124.352 59.3047C123.727 59.3047 123.109 59.3359 122.5 59.3984C121.906 59.4609 121.312 59.5391 120.719 59.6328L121.352 64.1797C121.695 64.2578 122.055 64.3125 122.43 64.3438C122.805 64.375 123.172 64.3906 123.531 64.3906C123.688 64.3906 123.914 64.3828 124.211 64.3672C124.523 64.3516 124.836 64.3203 125.148 64.2734C125.477 64.2266 125.773 64.1641 126.039 64.0859C126.32 63.9922 126.516 63.875 126.625 63.7344C126.672 63.6719 126.711 63.5547 126.742 63.3828C126.773 63.1953 126.789 63.0078 126.789 62.8203C126.805 62.6172 126.812 62.4219 126.812 62.2344C126.828 62.0469 126.836 61.9141 126.836 61.8359ZM150.484 65.3047C148.438 65.4141 146.398 65.5078 144.367 65.5859C142.336 65.6484 140.297 65.7188 138.25 65.7969C138.234 65.8594 138.227 65.9219 138.227 65.9844C138.227 66.0469 138.227 66.1094 138.227 66.1719C138.227 66.7031 138.344 67.1094 138.578 67.3906C138.828 67.6719 139.133 67.875 139.492 68C139.852 68.1094 140.25 68.1719 140.688 68.1875C141.125 68.2031 141.531 68.2109 141.906 68.2109C142.953 68.2109 144 68.1797 145.047 68.1172C146.094 68.0391 147.148 67.9609 148.211 67.8828L148.398 71.6094C147.367 71.6562 146.336 71.6953 145.305 71.7266C144.289 71.7578 143.266 71.7734 142.234 71.7734C142.016 71.7734 141.609 71.7734 141.016 71.7734C140.438 71.7578 139.812 71.7344 139.141 71.7031C138.484 71.6562 137.867 71.6016 137.289 71.5391C136.711 71.4766 136.328 71.3906 136.141 71.2812C135.656 71 135.273 70.6406 134.992 70.2031C134.727 69.7656 134.516 69.2891 134.359 68.7734C134.219 68.2578 134.117 67.7344 134.055 67.2031C134.008 66.6562 133.977 66.1328 133.961 65.6328C133.945 65.5547 133.938 65.4766 133.938 65.3984C133.953 65.3047 133.961 65.2188 133.961 65.1406C133.961 64.3125 134.047 63.5469 134.219 62.8438C134.406 62.125 134.742 61.4297 135.227 60.7578C135.555 60.2891 136.039 59.8984 136.68 59.5859C137.32 59.2734 138.016 59.0312 138.766 58.8594C139.516 58.6719 140.266 58.5469 141.016 58.4844C141.766 58.4062 142.414 58.3672 142.961 58.3672C143.445 58.3672 144.039 58.4141 144.742 58.5078C145.445 58.5859 146.141 58.7266 146.828 58.9297C147.531 59.1328 148.164 59.3984 148.727 59.7266C149.289 60.0391 149.672 60.4297 149.875 60.8984C149.906 60.9922 149.938 61.1562 149.969 61.3906C150.016 61.6094 150.062 61.8672 150.109 62.1641C150.156 62.4453 150.195 62.75 150.227 63.0781C150.273 63.4062 150.312 63.7188 150.344 64.0156C150.375 64.3125 150.398 64.5781 150.414 64.8125C150.445 65.0469 150.469 65.2109 150.484 65.3047ZM147.297 63.5938C147.203 62.9062 147.023 62.3672 146.758 61.9766C146.508 61.5703 146.188 61.2734 145.797 61.0859C145.422 60.8828 144.984 60.7578 144.484 60.7109C144 60.6484 143.477 60.6172 142.914 60.6172C142.727 60.6172 142.492 60.625 142.211 60.6406C141.93 60.6406 141.648 60.6641 141.367 60.7109C141.086 60.7422 140.82 60.7969 140.57 60.875C140.32 60.9531 140.125 61.0625 139.984 61.2031C139.875 61.2969 139.781 61.4297 139.703 61.6016C139.641 61.7578 139.586 61.9297 139.539 62.1172C139.492 62.3047 139.453 62.4922 139.422 62.6797C139.406 62.8516 139.398 63 139.398 63.125C139.398 63.375 139.422 63.6172 139.469 63.8516L147.297 63.5938ZM167.406 61.6484C167.406 62.3672 167.312 63.0625 167.125 63.7344C167.016 63.75 166.688 63.7734 166.141 63.8047C165.609 63.8203 164.969 63.8516 164.219 63.8984C163.484 63.9297 162.688 63.9766 161.828 64.0391C160.984 64.0859 160.195 64.1406 159.461 64.2031C158.742 64.2656 158.125 64.3359 157.609 64.4141C157.109 64.4766 156.828 64.5391 156.766 64.6016C156.516 64.8203 156.328 65.0859 156.203 65.3984C156.078 65.7109 156.016 66.0234 156.016 66.3359C156.016 66.5234 156.031 66.6719 156.062 66.7812C156.109 66.875 156.18 66.9844 156.273 67.1094C156.32 67.1562 156.484 67.1953 156.766 67.2266C157.047 67.2578 157.359 67.2812 157.703 67.2969C158.047 67.3125 158.367 67.3281 158.664 67.3438C158.961 67.3438 159.133 67.3438 159.18 67.3438C160.305 67.3438 161.43 67.3203 162.555 67.2734C163.68 67.2266 164.805 67.1641 165.93 67.0859L166.117 71.1172C164.555 71.2422 162.984 71.3672 161.406 71.4922C159.844 71.6016 158.273 71.6562 156.695 71.6562C156.617 71.6562 156.5 71.6562 156.344 71.6562C156.203 71.6562 156.047 71.6562 155.875 71.6562C155.703 71.6406 155.539 71.625 155.383 71.6094C155.227 71.5938 155.117 71.5781 155.055 71.5625C154.727 71.4688 154.398 71.3672 154.07 71.2578C153.758 71.1328 153.461 70.9844 153.18 70.8125C152.898 70.625 152.648 70.4062 152.43 70.1562C152.227 69.9062 152.078 69.6016 151.984 69.2422C151.922 69.0078 151.867 68.7031 151.82 68.3281C151.789 67.9375 151.766 67.5391 151.75 67.1328C151.734 66.7266 151.719 66.3281 151.703 65.9375C151.703 65.5469 151.703 65.2188 151.703 64.9531C151.703 64.3438 151.711 63.7734 151.727 63.2422C151.742 62.7109 151.828 62.2266 151.984 61.7891C152.141 61.3359 152.391 60.9375 152.734 60.5938C153.094 60.2344 153.602 59.9219 154.258 59.6562C154.555 59.5312 155 59.4375 155.594 59.375C156.188 59.2969 156.805 59.2422 157.445 59.2109C158.102 59.1641 158.727 59.1328 159.32 59.1172C159.914 59.1016 160.375 59.0938 160.703 59.0938C161.797 59.0938 162.883 59.1172 163.961 59.1641C165.055 59.2109 166.148 59.2734 167.242 59.3516C167.289 59.7422 167.328 60.1328 167.359 60.5234C167.391 60.8984 167.406 61.2734 167.406 61.6484ZM186.391 64.7188C186.391 64.8438 186.391 64.9688 186.391 65.0938C186.391 65.2031 186.383 65.3203 186.367 65.4453C186.352 65.6641 186.312 66.0234 186.25 66.5234C186.188 67.0234 186.102 67.5469 185.992 68.0938C185.883 68.625 185.75 69.1172 185.594 69.5703C185.438 70.0234 185.266 70.3125 185.078 70.4375C184.984 70.5 184.664 70.5547 184.117 70.6016C183.586 70.6484 182.93 70.6953 182.148 70.7422C181.383 70.7891 180.547 70.8281 179.641 70.8594C178.734 70.8906 177.867 70.9219 177.039 70.9531C176.227 70.9688 175.508 70.9844 174.883 71C174.273 71.0156 173.867 71.0234 173.664 71.0234C173.57 71.0234 173.406 71.0234 173.172 71.0234C172.953 71.0234 172.719 71.0234 172.469 71.0234C172.219 71.0078 171.984 70.9922 171.766 70.9766C171.547 70.9609 171.391 70.9375 171.297 70.9062C171.078 70.8281 170.859 70.7031 170.641 70.5312C170.422 70.3438 170.219 70.1406 170.031 69.9219C169.844 69.6875 169.672 69.4531 169.516 69.2188C169.375 68.9688 169.273 68.7344 169.211 68.5156C169.164 68.3438 169.125 68.0859 169.094 67.7422C169.062 67.3828 169.039 67.0156 169.023 66.6406C169.008 66.25 168.992 65.875 168.977 65.5156C168.977 65.1562 168.977 64.8828 168.977 64.6953C168.977 64.3984 168.984 63.9922 169 63.4766C169.016 62.9453 169.062 62.4062 169.141 61.8594C169.219 61.3125 169.328 60.8047 169.469 60.3359C169.625 59.8516 169.844 59.5156 170.125 59.3281C170.25 59.25 170.484 59.1797 170.828 59.1172C171.172 59.0547 171.578 59 172.047 58.9531C172.516 58.9062 173.016 58.875 173.547 58.8594C174.078 58.8281 174.594 58.8125 175.094 58.8125C175.609 58.7969 176.086 58.7891 176.523 58.7891C176.961 58.7891 177.312 58.7969 177.578 58.8125C177.812 58.8281 178.148 58.8438 178.586 58.8594C179.023 58.8594 179.508 58.8672 180.039 58.8828C180.586 58.8984 181.148 58.9297 181.727 58.9766C182.305 59.0078 182.844 59.0547 183.344 59.1172C183.844 59.1797 184.281 59.2656 184.656 59.375C185.047 59.4688 185.305 59.5859 185.43 59.7266C185.633 59.9453 185.797 60.2734 185.922 60.7109C186.047 61.1484 186.141 61.6172 186.203 62.1172C186.281 62.6016 186.328 63.0859 186.344 63.5703C186.375 64.0391 186.391 64.4219 186.391 64.7188ZM181.422 65.2109C181.422 65.0234 181.414 64.8047 181.398 64.5547C181.383 64.3047 181.359 64.0547 181.328 63.8047C181.297 63.5391 181.25 63.2891 181.188 63.0547C181.125 62.8047 181.047 62.6016 180.953 62.4453C180.828 62.2422 180.586 62.0859 180.227 61.9766C179.867 61.8672 179.469 61.7891 179.031 61.7422C178.609 61.6797 178.188 61.6406 177.766 61.625C177.359 61.6094 177.055 61.6016 176.852 61.6016C176.742 61.6016 176.547 61.6094 176.266 61.625C175.984 61.625 175.688 61.6328 175.375 61.6484C175.078 61.6641 174.797 61.6953 174.531 61.7422C174.266 61.7734 174.094 61.8125 174.016 61.8594C173.875 61.9531 173.766 62.1016 173.688 62.3047C173.609 62.4922 173.547 62.7031 173.5 62.9375C173.469 63.1719 173.445 63.4062 173.43 63.6406C173.43 63.8594 173.43 64.0391 173.43 64.1797C173.43 64.3203 173.438 64.5781 173.453 64.9531C173.484 65.3125 173.516 65.7031 173.547 66.125C173.594 66.5312 173.648 66.9062 173.711 67.25C173.773 67.5938 173.852 67.8125 173.945 67.9062C174.055 68.0312 174.258 68.1328 174.555 68.2109C174.867 68.2891 175.195 68.3594 175.539 68.4219C175.898 68.4688 176.242 68.5078 176.57 68.5391C176.898 68.5547 177.133 68.5625 177.273 68.5625C177.523 68.5625 177.82 68.5547 178.164 68.5391C178.508 68.5234 178.852 68.4844 179.195 68.4219C179.555 68.3594 179.891 68.2734 180.203 68.1641C180.516 68.0547 180.766 67.9062 180.953 67.7188C181.062 67.6094 181.148 67.4453 181.211 67.2266C181.273 67.0078 181.32 66.7734 181.352 66.5234C181.383 66.2734 181.398 66.0312 181.398 65.7969C181.414 65.5469 181.422 65.3516 181.422 65.2109ZM202.375 64.1094V64.6484L197.852 64.8594C197.898 64.6562 197.922 64.4219 197.922 64.1562C197.922 63.7656 197.867 63.5156 197.758 63.4062C197.648 63.2812 197.406 63.2188 197.031 63.2188C196.5 63.2188 195.914 63.3125 195.273 63.5C194.633 63.6875 194.07 63.8672 193.586 64.0391C193.508 64.7266 193.445 65.4141 193.398 66.1016C193.352 66.7891 193.328 67.4766 193.328 68.1641C193.328 68.9297 193.328 69.6953 193.328 70.4609C193.344 71.2109 193.359 71.9688 193.375 72.7344L189.344 72.9922C189.266 71.9922 189.188 71 189.109 70.0156C189.031 69.0156 188.961 68.0156 188.898 67.0156C188.82 65.6875 188.719 64.3672 188.594 63.0547C188.469 61.7266 188.344 60.3906 188.219 59.0469C189.109 59.1094 189.992 59.2031 190.867 59.3281C191.758 59.4375 192.648 59.5781 193.539 59.75L193.422 61.7188C193.891 61.3438 194.336 61.0234 194.758 60.7578C195.195 60.4766 195.633 60.2422 196.07 60.0547C196.523 59.8672 197 59.7344 197.5 59.6562C198 59.5625 198.555 59.5156 199.164 59.5156C199.57 59.5156 199.992 59.5625 200.43 59.6562C200.867 59.7344 201.242 59.9297 201.555 60.2422C201.711 60.4141 201.844 60.6719 201.953 61.0156C202.062 61.3594 202.148 61.7266 202.211 62.1172C202.273 62.4922 202.312 62.8672 202.328 63.2422C202.359 63.6016 202.375 63.8906 202.375 64.1094ZM219.766 60.9688C219.766 61.625 219.766 62.2734 219.766 62.9141C219.766 63.5547 219.75 64.2031 219.719 64.8594C219.688 66.2969 219.625 67.7266 219.531 69.1484C219.438 70.5547 219.336 71.9688 219.227 73.3906C217.805 73.4844 216.398 73.5625 215.008 73.625C213.617 73.6875 212.211 73.7188 210.789 73.7188C210.602 73.7188 210.305 73.7188 209.898 73.7188C209.492 73.7031 209.055 73.6875 208.586 73.6719C208.133 73.6562 207.703 73.6328 207.297 73.6016C206.891 73.5547 206.594 73.4922 206.406 73.4141C205.203 72.9766 204.305 72.3906 203.711 71.6562C203.133 70.9062 202.844 69.875 202.844 68.5625V68.1875C202.875 67.6094 202.922 67.0938 202.984 66.6406C203.047 66.1875 203.156 65.7734 203.312 65.3984C203.484 65.0234 203.711 64.6797 203.992 64.3672C204.289 64.0391 204.688 63.7109 205.188 63.3828C205.531 63.1484 205.938 62.9531 206.406 62.7969C206.875 62.6406 207.359 62.5078 207.859 62.3984C208.375 62.2891 208.875 62.2109 209.359 62.1641C209.859 62.1172 210.312 62.0938 210.719 62.0938C211.469 62.0938 212.211 62.1484 212.945 62.2578C213.695 62.3672 214.438 62.5312 215.172 62.75C215.094 61.7188 215.023 60.7031 214.961 59.7031C214.914 58.6875 214.836 57.6719 214.727 56.6562C215.57 56.5781 216.406 56.4922 217.234 56.3984C218.062 56.3047 218.891 56.2109 219.719 56.1172C219.734 56.9297 219.742 57.7422 219.742 58.5547C219.758 59.3516 219.766 60.1562 219.766 60.9688ZM216.18 68.0469C216.18 67.6875 216.18 67.3281 216.18 66.9688C216.18 66.6094 216.172 66.25 216.156 65.8906C215.172 65.8438 214.188 65.8203 213.203 65.8203C213.062 65.8203 212.766 65.8281 212.312 65.8438C211.859 65.8438 211.375 65.8594 210.859 65.8906C210.359 65.9062 209.891 65.9453 209.453 66.0078C209.016 66.0547 208.734 66.1172 208.609 66.1953C208.375 66.3672 208.227 66.6094 208.164 66.9219C208.117 67.2344 208.094 67.5234 208.094 67.7891C208.094 67.9141 208.102 68.0859 208.117 68.3047C208.133 68.5078 208.156 68.7266 208.188 68.9609C208.234 69.1797 208.289 69.3906 208.352 69.5938C208.414 69.7812 208.484 69.9219 208.562 70.0156C208.609 70.0625 208.688 70.1016 208.797 70.1328C208.922 70.1641 209.055 70.1875 209.195 70.2031C209.336 70.2188 209.469 70.2266 209.594 70.2266C209.734 70.2266 209.844 70.2266 209.922 70.2266C210.812 70.2266 211.695 70.1875 212.57 70.1094C213.445 70.0312 214.328 69.9297 215.219 69.8047C215.344 69.7734 215.492 69.7578 215.664 69.7578C215.836 69.7422 215.992 69.7109 216.133 69.6641V69.6172C216.133 69.6016 216.141 69.5859 216.156 69.5703C216.188 69.3203 216.195 69.0703 216.18 68.8203C216.18 68.5703 216.18 68.3125 216.18 68.0469ZM226.281 58.3203C226.281 58.6328 226.211 58.9297 226.07 59.2109C225.945 59.4766 225.766 59.7109 225.531 59.9141C225.312 60.1172 225.062 60.2812 224.781 60.4062C224.5 60.5156 224.219 60.5703 223.938 60.5703C223.625 60.5703 223.328 60.5 223.047 60.3594C222.781 60.2188 222.547 60.0391 222.344 59.8203C222.141 59.6016 221.984 59.3516 221.875 59.0703C221.766 58.7734 221.711 58.4766 221.711 58.1797C221.711 57.8828 221.766 57.6094 221.875 57.3594C222 57.0938 222.156 56.8672 222.344 56.6797C222.547 56.4922 222.773 56.3438 223.023 56.2344C223.289 56.125 223.57 56.0703 223.867 56.0703C224.164 56.0703 224.453 56.1328 224.734 56.2578C225.031 56.3672 225.289 56.5312 225.508 56.75C225.742 56.9531 225.93 57.1953 226.07 57.4766C226.211 57.7422 226.281 58.0234 226.281 58.3203ZM227.242 62.3047C227.164 63.1328 227.102 63.9531 227.055 64.7656C227.008 65.5781 226.961 66.3906 226.914 67.2031C226.852 68.1562 226.742 69.1016 226.586 70.0391C226.445 70.9766 226.281 71.9141 226.094 72.8516L222.508 73.2266C222.508 72.7266 222.508 72.2344 222.508 71.75C222.523 71.2656 222.531 70.7734 222.531 70.2734C222.531 68.9922 222.508 67.7109 222.461 66.4297C222.414 65.1484 222.367 63.8672 222.32 62.5859C223.148 62.5547 223.961 62.5078 224.758 62.4453C225.57 62.3828 226.398 62.3359 227.242 62.3047ZM243.578 67.0391C243.578 67.4609 243.578 67.8906 243.578 68.3281C243.578 68.75 243.562 69.1719 243.531 69.5938L238.305 69.9219C238.367 69.1094 238.414 68.3047 238.445 67.5078C238.492 66.7109 238.516 65.8984 238.516 65.0703C238.516 64.9922 238.516 64.8594 238.516 64.6719C238.516 64.4844 238.508 64.2891 238.492 64.0859C238.477 63.8672 238.461 63.6641 238.445 63.4766C238.43 63.2891 238.414 63.1562 238.398 63.0781C238.32 62.8594 238.234 62.6719 238.141 62.5156C238.062 62.3594 237.961 62.2344 237.836 62.1406C237.727 62.0469 237.586 61.9844 237.414 61.9531C237.242 61.9062 237.031 61.8828 236.781 61.8828C236.594 61.8828 236.352 61.8984 236.055 61.9297C235.773 61.9609 235.484 62.0078 235.188 62.0703C234.891 62.1328 234.609 62.2109 234.344 62.3047C234.078 62.3984 233.891 62.5078 233.781 62.6328L233.734 69.5469C233.703 69.4844 233.609 69.4531 233.453 69.4531C233.312 69.4531 233.211 69.4531 233.148 69.4531C232.68 69.4531 232.195 69.4766 231.695 69.5234C231.195 69.5547 230.711 69.6016 230.242 69.6641C230.039 67.8203 229.859 65.9844 229.703 64.1562C229.547 62.3281 229.367 60.4922 229.164 58.6484C229.477 58.6328 229.789 58.625 230.102 58.625C230.414 58.6094 230.727 58.6016 231.039 58.6016C231.445 58.6016 231.852 58.6172 232.258 58.6484C232.68 58.6641 233.094 58.6797 233.5 58.6953L233.664 60.5C234.102 59.7812 234.695 59.1797 235.445 58.6953C236.195 58.2109 237 57.9688 237.859 57.9688C238.297 57.9688 238.75 57.9922 239.219 58.0391C239.688 58.0859 240.133 58.1797 240.555 58.3203C240.992 58.4609 241.398 58.6562 241.773 58.9062C242.164 59.1562 242.492 59.4766 242.758 59.8672C242.883 60.0547 242.984 60.3359 243.062 60.7109C243.156 61.0703 243.234 61.4844 243.297 61.9531C243.359 62.4062 243.406 62.8906 243.438 63.4062C243.484 63.9219 243.516 64.4141 243.531 64.8828C243.547 65.3516 243.555 65.7812 243.555 66.1719C243.57 66.5469 243.578 66.8359 243.578 67.0391ZM261.484 65.7031C261.484 66.3594 261.477 67.0156 261.461 67.6719C261.461 68.3125 261.461 68.9609 261.461 69.6172C261.445 69.9609 261.438 70.3125 261.438 70.6719C261.453 71.0312 261.445 71.3906 261.414 71.75C261.367 72.0938 261.32 72.4609 261.273 72.8516C261.227 73.2266 261.148 73.6016 261.039 73.9766C260.93 74.3516 260.781 74.7031 260.594 75.0312C260.422 75.3594 260.188 75.6406 259.891 75.875C259.812 75.9375 259.656 75.9922 259.422 76.0391C259.188 76.0859 258.914 76.1328 258.602 76.1797C258.289 76.2266 257.953 76.2656 257.594 76.2969C257.234 76.3281 256.891 76.3516 256.562 76.3672C256.234 76.3984 255.938 76.4219 255.672 76.4375C255.406 76.4688 255.219 76.4844 255.109 76.4844C254.125 76.5156 253.148 76.5391 252.18 76.5547C251.227 76.5703 250.258 76.5781 249.273 76.5781H247.773C247.742 76.3125 247.711 76.0391 247.68 75.7578C247.648 75.4766 247.633 75.1953 247.633 74.9141C247.633 74.6016 247.602 74.2812 247.539 73.9531C247.477 73.6094 247.406 73.2734 247.328 72.9453L248.875 72.9688C248.969 72.9688 249.227 72.9688 249.648 72.9688C250.086 72.9531 250.594 72.9453 251.172 72.9453C251.75 72.9297 252.367 72.9141 253.023 72.8984C253.695 72.8672 254.312 72.8281 254.875 72.7812C255.438 72.7344 255.914 72.6797 256.305 72.6172C256.711 72.5547 256.938 72.4844 256.984 72.4062C257.109 72.2031 257.188 71.9766 257.219 71.7266C257.25 71.4609 257.266 71.2109 257.266 70.9766C257.266 70.8516 257.258 70.7266 257.242 70.6016C257.242 70.4609 257.234 70.3281 257.219 70.2031C256.344 70.2656 255.477 70.3203 254.617 70.3672C253.758 70.4141 252.883 70.4375 251.992 70.4375C251.789 70.4375 251.531 70.4375 251.219 70.4375C250.922 70.4375 250.609 70.4297 250.281 70.4141C249.969 70.3984 249.656 70.375 249.344 70.3438C249.047 70.3125 248.805 70.2656 248.617 70.2031C248.305 70.1094 247.984 70.0078 247.656 69.8984C247.344 69.7734 247.047 69.625 246.766 69.4531C246.484 69.2812 246.234 69.0781 246.016 68.8438C245.812 68.5938 245.672 68.2969 245.594 67.9531C245.547 67.7812 245.516 67.5938 245.5 67.3906C245.5 67.1875 245.5 67 245.5 66.8281C245.5 66.3906 245.523 65.8359 245.57 65.1641C245.617 64.4922 245.695 63.8125 245.805 63.125C245.93 62.4219 246.086 61.7656 246.273 61.1562C246.477 60.5312 246.727 60.0625 247.023 59.75C247.195 59.5625 247.469 59.3984 247.844 59.2578C248.234 59.1172 248.672 59 249.156 58.9062C249.641 58.8125 250.148 58.7344 250.68 58.6719C251.227 58.5938 251.758 58.5391 252.273 58.5078C252.789 58.4766 253.258 58.4531 253.68 58.4375C254.117 58.4219 254.461 58.4141 254.711 58.4141C255.586 58.4141 256.461 58.4375 257.336 58.4844L257.5 56.9844L261.438 57.5703C261.453 58.9297 261.461 60.2812 261.461 61.625C261.477 62.9688 261.484 64.3281 261.484 65.7031ZM257.336 65.2578C257.336 64.7578 257.328 64.2734 257.312 63.8047C257.297 63.3203 257.273 62.8281 257.242 62.3281C256.555 62.1719 255.867 62.0469 255.18 61.9531C254.492 61.8594 253.789 61.8125 253.07 61.8125C252.945 61.8125 252.758 61.8203 252.508 61.8359C252.258 61.8516 251.992 61.8828 251.711 61.9297C251.445 61.9609 251.195 62.0156 250.961 62.0938C250.727 62.1562 250.562 62.2344 250.469 62.3281C250.328 62.4844 250.242 62.6641 250.211 62.8672C250.18 63.0703 250.164 63.2734 250.164 63.4766C250.164 63.6484 250.18 63.9141 250.211 64.2734C250.258 64.6172 250.312 64.9766 250.375 65.3516C250.438 65.7266 250.516 66.0781 250.609 66.4062C250.703 66.7344 250.797 66.9609 250.891 67.0859C250.984 67.2109 251.102 67.3047 251.242 67.3672C251.383 67.4297 251.531 67.4766 251.688 67.5078C251.859 67.5234 252.023 67.5391 252.18 67.5547C252.352 67.5547 252.5 67.5547 252.625 67.5547C252.938 67.5547 253.312 67.5469 253.75 67.5312C254.203 67.5 254.648 67.4531 255.086 67.3906C255.539 67.3281 255.961 67.2422 256.352 67.1328C256.742 67.0078 257.039 66.8438 257.242 66.6406C257.273 66.625 257.297 66.5469 257.312 66.4062C257.328 66.2656 257.336 66.1172 257.336 65.9609C257.336 65.8047 257.336 65.6562 257.336 65.5156C257.336 65.375 257.336 65.2891 257.336 65.2578Z" stroke="#F4CFB8" stroke-width="64" mask="url(#path-1-outside-1_89_81)"/>
</svg>
